# xmcd
#
# Track frame offsets: 
#        150
#        16370
#        36619
#        52736
#        70554
#        89324
#        108470
#        124298
#        138221
#        155471
#        170004
#        192262
#        211735
#        228566
#        251501
#        268567
#        288442
#        303235
#
# Disc length: 4312 seconds
#
# Revision: 0
# Processed by: cddbd v1.5.2PL0 Copyright (c) Steve Scherf et al.
# Submitted via: ExactAudioCopy v0.99pb5
#
DISCID=f910d612
DTITLE=Various Artist - Billboard 1986
DYEAR=2000
DGENRE=Other
TTITLE0=The Outfield - Your Love
TTITLE1=Europe - Carrie
TTITLE2=Poison - I Won't Forget You
TTITLE3=Sandra - (I'll Never Be) Maria Magdalena
TTITLE4=Bon Jovi - Livin' on a Prayer
TTITLE5=Berlin - Take My Breath Away
TTITLE6=Kenny Loggins - Danger Zone
TTITLE7=The Bangles - Manic Monday
TTITLE8=Survivor - Burning Heart
TTITLE9=The Smiths - Bigmouth Strikes Again
TTITLE10=Opus - Flyin' High
TTITLE11=Peter Cetera - Glory of Love
TTITLE12=Glenn Medeiros - Nothing's Gonna Change My Love for You
TTITLE13=Iron Maiden - Wasted Years
TTITLE14=The Hooters - And We Danced
TTITLE15=New Kids on the Block - Didn't I (Blow Your Mind)
TTITLE16=Robin Beck - First Time
TTITLE17=The Communards - Don't Leave Me This Way
EXTD=
EXTT0=
EXTT1=
EXTT2=
EXTT3=
EXTT4=
EXTT5=
EXTT6=
EXTT7=
EXTT8=
EXTT9=
EXTT10=
EXTT11=
EXTT12=
EXTT13=
EXTT14=
EXTT15=
EXTT16=
EXTT17=
PLAYORDER=
